<?xml version="1.0" standalone="no"?>
<!DOCTYPE svg PUBLIC "-//W3C//DTD SVG 20010904//EN"
 "http://www.w3.org/TR/2001/REC-SVG-20010904/DTD/svg10.dtd">
<svg version="1.0" xmlns="http://www.w3.org/2000/svg"
 width="225.000000pt" height="225.000000pt" viewBox="0 0 225.000000 225.000000"
 preserveAspectRatio="xMidYMid meet">

<g transform="translate(0.000000,225.000000) scale(0.100000,-0.100000)"
fill="#000000" stroke="none">
<path d="M1003 1580 c-42 -25 -63 -68 -63 -126 0 -41 5 -51 39 -85 27 -28 47
-39 67 -39 l29 1 -30 13 c-60 26 -85 83 -71 159 7 39 47 84 79 90 20 4 20 4 2
6 -11 0 -34 -8 -52 -19z"/>
<path d="M1107 1589 c18 -5 39 -19 48 -31 15 -22 15 -22 15 7 0 29 -2 30 -48
31 -44 2 -45 1 -15 -7z"/>
<path d="M1075 1340 l0 -130 68 0 c111 0 157 38 157 128 0 87 -57 132 -167
132 l-58 0 0 -130z m154 94 c56 -47 61 -136 9 -191 -17 -18 -32 -23 -75 -23
l-53 0 0 120 0 120 44 0 c33 0 52 -7 75 -26z"/>
<path d="M1130 1350 c-9 -6 -10 -10 -3 -10 6 0 15 5 18 10 8 12 4 12 -15 0z"/>
<path d="M361 1004 c-33 -41 -24 -103 16 -118 16 -6 16 -6 0 12 -21 23 -22 80
-1 110 21 31 10 28 -15 -4z"/>
<path d="M455 1020 c3 -5 8 -10 11 -10 2 0 4 5 4 10 0 6 -5 10 -11 10 -5 0 -7
-4 -4 -10z"/>
<path d="M505 955 c0 -41 3 -75 7 -75 3 0 8 34 10 75 2 46 -1 75 -7 75 -6 0
-10 -32 -10 -75z"/>
<path d="M608 955 c2 -41 7 -75 10 -75 4 0 7 34 7 75 0 43 -4 75 -10 75 -6 0
-9 -29 -7 -75z"/>
<path d="M670 955 c0 -43 4 -75 10 -75 6 0 10 32 10 75 0 43 -4 75 -10 75 -6
0 -10 -32 -10 -75z"/>
<path d="M918 966 c2 -40 9 -69 18 -77 12 -9 12 -6 3 20 -6 17 -9 51 -7 76 2
26 -1 45 -7 45 -6 0 -9 -26 -7 -64z"/>
<path d="M1020 955 c0 -43 4 -75 10 -75 6 0 10 32 10 75 0 43 -4 75 -10 75 -6
0 -10 -32 -10 -75z"/>
<path d="M1085 955 c0 -43 4 -75 10 -75 6 0 10 32 10 75 0 43 -4 75 -10 75 -6
0 -10 -32 -10 -75z"/>
<path d="M1265 955 c0 -43 4 -75 10 -75 6 0 9 26 7 66 -3 48 0 69 10 75 10 7
8 9 -7 9 -18 0 -20 -7 -20 -75z"/>
<path d="M1441 1004 c-27 -35 -27 -67 2 -96 12 -13 16 -17 10 -8 -18 24 -16
90 4 112 9 10 13 18 10 18 -3 0 -15 -12 -26 -26z"/>
<path d="M1548 1010 c6 -9 12 -34 12 -55 0 -21 -6 -46 -12 -55 -7 -9 -3 -5 10
8 12 13 22 34 22 47 0 13 -10 34 -22 47 -13 13 -17 17 -10 8z"/>
<path d="M1615 955 c0 -43 4 -75 10 -75 6 0 10 32 10 75 0 43 -4 75 -10 75 -6
0 -10 -32 -10 -75z"/>
<path d="M1725 955 c0 -43 4 -75 10 -75 6 0 10 32 10 75 0 43 -4 75 -10 75 -6
0 -10 -32 -10 -75z"/>
<path d="M1827 1023 c-4 -3 -7 -18 -7 -32 0 -19 10 -32 36 -49 27 -18 34 -28
29 -45 -5 -20 -4 -20 7 2 11 22 9 26 -26 56 -30 25 -38 38 -33 54 5 22 4 25
-6 14z"/>
<path d="M739 998 c-24 -44 -1 -119 35 -118 6 0 3 5 -6 11 -22 13 -34 74 -19
105 13 30 6 32 -10 2z"/>
<path d="M855 1005 c16 -46 17 -57 5 -86 -9 -21 -22 -32 -43 -36 l-29 -6 23
-13 c13 -7 33 -13 44 -13 18 0 18 1 -2 9 l-23 9 25 25 c29 29 34 82 9 112 -15
19 -16 19 -9 -1z"/>
<path d="M1364 1000 c22 -33 20 -76 -4 -100 -11 -11 -16 -20 -12 -20 5 0 17 9
27 20 26 28 23 76 -5 103 l-23 22 17 -25z"/>
<path d="M1810 890 c0 -5 5 -10 11 -10 5 0 7 5 4 10 -3 6 -8 10 -11 10 -2 0
-4 -4 -4 -10z"/>
<path d="M408 873 c7 -3 16 -2 19 1 4 3 -2 6 -13 5 -11 0 -14 -3 -6 -6z"/>
<path d="M930 787 c0 -6 34 -64 57 -96 2 -2 5 -2 8 1 3 2 -11 27 -30 54 -19
27 -35 45 -35 41z"/>
<path d="M1033 740 c0 -30 2 -43 4 -27 2 15 2 39 0 55 -2 15 -4 2 -4 -28z"/>
<path d="M1103 745 c0 -27 2 -38 4 -22 2 15 2 37 0 50 -2 12 -4 0 -4 -28z"/>
<path d="M1271 743 c0 -29 3 -53 7 -53 4 0 6 17 4 38 -6 64 -10 69 -11 15z"/>
<path d="M1326 747 c9 -27 18 -46 20 -44 5 5 -16 69 -27 82 -5 5 -2 -12 7 -38z"/>
<path d="M1413 740 c0 -30 2 -43 4 -27 2 15 2 39 0 55 -2 15 -4 2 -4 -28z"/>
<path d="M1200 761 c0 -6 9 -15 20 -21 11 -6 20 -18 21 -28 0 -12 2 -13 6 -3
3 7 -6 24 -21 38 -14 13 -26 19 -26 14z"/>
<path d="M1160 716 c0 -8 4 -17 9 -20 5 -4 7 3 4 14 -6 23 -13 26 -13 6z"/>
</g>
</svg>
